<svg width="326" height="308" viewBox="0 0 326 308" fill="none" xmlns="http://www.w3.org/2000/svg">
<path fill-rule="evenodd" clip-rule="evenodd" d="M260.813 96.7691C263.704 94.7958 266.037 92.0535 266.731 88.466C268.731 78.1296 253.886 76.5437 249.743 80.921C245.6 85.2982 242.45 98.3733 245.786 100.248C247.117 100.996 250.399 100.917 253.992 99.8968L248.396 113.006L259.873 116.082L260.813 96.7691Z" fill="#B28B67"/>
<path fill-rule="evenodd" clip-rule="evenodd" d="M256.829 87.0134C254.764 92.9616 252.789 95.6832 250.904 95.1781C248.076 94.4204 246.154 91.9983 244.913 91.6659C244.009 91.4235 243.91 92.5995 244.287 93.5919C244.598 94.4106 246.829 95.7175 246.544 96.7814C246.259 97.8453 244.576 96.5123 244.407 97.1432C244.128 98.1869 243.267 100.06 245.095 100.549C246.945 101.045 252.427 101.798 254.065 99.3205C255.122 97.7217 256.476 94.1846 258.127 88.7093C258.243 88.7262 258.359 88.75 258.475 88.781C260.06 89.2056 261.003 90.8232 260.582 92.3939C260.369 93.1913 259.844 93.8233 259.173 94.1968C259.588 95.3036 260.072 96.4733 260.656 97.703C264.37 96.6565 268.241 91.7173 266.544 85.5216C266.382 82.6655 264.798 80.7388 262.658 79.4678C260.991 78.1882 259.069 77.5791 257.301 77.6049C254.007 77.0158 250.871 77.2185 249.901 77.5782C249.091 80.6001 249.442 81.655 254.509 82.928C255.575 83.9092 256.229 85.2822 256.829 87.0134Z" fill="#191847"/>
<path fill-rule="evenodd" clip-rule="evenodd" d="M254.285 156.049L229.984 217.318L213.685 269.115H207.249L232.166 156.049L254.285 156.049Z" fill="#997659"/>
<path fill-rule="evenodd" clip-rule="evenodd" d="M259.178 156.049C259.437 177.579 263.211 206.566 263.814 207.908C264.216 208.803 278.092 220.181 305.442 242.042L301.009 246.767C268.739 228.024 251.857 217.403 250.363 214.903C248.123 211.153 240.831 176.647 234.976 156.049H259.178Z" fill="#B28B67"/>
<path fill-rule="evenodd" clip-rule="evenodd" d="M306.064 240.455C307.553 240.981 308.578 241.48 309.141 241.952C309.825 242.526 310.727 243.477 311.848 244.806C311.182 245.6 305.199 252.73 293.898 266.198C291.594 265.212 290.871 264.059 291.729 262.738C292.588 261.417 293.29 260.311 293.837 259.42L297.747 245.758C297.823 245.495 298.097 245.343 298.36 245.418C298.364 245.42 298.369 245.421 298.373 245.422L300.46 246.084C301.907 245.409 302.922 244.726 303.504 244.032C303.976 243.469 304.401 242.5 304.779 241.126L304.779 241.126C304.924 240.599 305.469 240.289 305.997 240.434C306.019 240.44 306.042 240.447 306.064 240.455Z" fill="#E4E4E4"/>
<path fill-rule="evenodd" clip-rule="evenodd" d="M216.321 266.772C216.874 268.251 217.151 269.357 217.151 270.091C217.151 270.984 217.003 272.287 216.705 274C215.669 274 206.361 274 188.78 274C188.054 271.601 188.473 270.306 190.037 270.115C191.6 269.923 192.899 269.751 193.933 269.596L206.912 263.81C207.162 263.699 207.455 263.811 207.566 264.061C207.568 264.065 207.57 264.069 207.572 264.074L208.406 266.097C209.853 266.773 211.03 267.11 211.935 267.11C212.67 267.11 213.685 266.813 214.981 266.22L214.981 266.22C215.478 265.992 216.065 266.21 216.293 266.707C216.303 266.729 216.312 266.75 216.321 266.772Z" fill="#E4E4E4"/>
<path fill-rule="evenodd" clip-rule="evenodd" d="M237.946 263.78L207.346 260.472L230.024 156.049H257.432L237.946 263.78Z" fill="#69A1AC"/>
<path fill-rule="evenodd" clip-rule="evenodd" d="M299.112 234.419L279.04 258.085C257.899 235.084 245.574 220.076 242.064 213.061C238.555 206.046 235.4 187.042 232.6 156.049H263.455C264.985 183.315 266.016 197.582 266.549 198.851C267.081 200.12 277.936 211.976 299.112 234.419Z" fill="#89C5CC"/>
<path fill-rule="evenodd" clip-rule="evenodd" d="M216.384 144.689L198.827 153.311C194.409 153.7 190.636 154.488 187.509 155.674C186.733 156.163 185.709 157.248 188.519 157.524C191.329 157.801 194.272 158.218 194.489 159.227C194.706 160.235 192.829 161.065 193.379 162.471C193.745 163.408 196.555 161.715 201.809 157.392L218.331 153.752L216.384 144.689ZM276.032 155.61L265.835 153.854C268.563 175.173 270.069 186.495 270.352 187.82C270.99 190.801 267.855 194.618 266.433 196.715C269.497 198.782 270.109 193.236 273.962 195.917C277.478 198.365 279.825 202.09 284.727 200.154C285.33 199.916 286.148 198.764 284.881 197.528C281.725 194.447 277.31 189.251 276.861 187.718C276.247 185.627 275.971 174.925 276.032 155.61Z" fill="#B28B67"/>
<path fill-rule="evenodd" clip-rule="evenodd" d="M254.577 107.96L250.488 106.497C232.473 117.185 221.492 141.886 199.904 152.19L203.516 158.697C237.504 160.464 251.305 130.407 254.577 107.96Z" fill="#72B78D"/>
<path fill-rule="evenodd" clip-rule="evenodd" d="M263.66 163.925C246.754 160.944 234.319 158.751 226.354 157.347C224.649 157.046 225.402 154.653 225.866 153.461C231.226 139.698 245.039 126.279 248.619 105.973L259.676 106.191C266.065 122.005 266.051 140.086 263.66 163.925Z" fill="#DDE3E9"/>
<path fill-rule="evenodd" clip-rule="evenodd" d="M270.644 122.562C272.286 122.391 273.707 121.566 274.908 120.089C280.087 113.72 279.352 109.582 275.374 107.563C271.396 105.543 267.183 107.515 260.487 106.334C260.122 106.27 259.785 106.234 259.474 106.226L256.071 105.823C240.659 136.714 234.159 157.991 236.571 169.654L265.934 174.831C266.962 179.175 268.027 182.865 269.131 185.901L277.132 187.312C282.157 163.218 279.994 141.634 270.644 122.562Z" fill="#72B78D"/>
<path fill-rule="evenodd" clip-rule="evenodd" d="M262.492 156.964C260.213 164.49 257.728 169.805 255.037 172.91L265.934 174.831C264.735 169.765 263.588 163.809 262.492 156.964Z" fill="black" fill-opacity="0.1"/>
<g clip-path="url(#clip0)">
<path fill-rule="evenodd" clip-rule="evenodd" d="M68.2709 128.741C66.0954 126.213 64.623 123.114 64.869 119.643C65.578 109.64 79.6426 111.841 82.3785 116.889C85.1143 121.938 84.7893 134.743 81.2534 135.646C79.8433 136.006 76.8394 135.124 73.7821 133.3L75.7011 146.74H64.3701L68.2709 128.741Z" fill="#DDC2AB"/>
<path fill-rule="evenodd" clip-rule="evenodd" d="M77.9019 111.391C76.3536 110.923 74.106 110.765 73.1605 110.872C73.6984 109.596 73.9118 108.175 73.7378 106.791C73.5687 105.446 72.9618 104.301 72.4004 103.101C72.1417 102.548 71.8485 101.998 71.4113 101.575C70.9659 101.144 70.4022 100.86 69.811 100.724C69.2061 100.585 68.5735 100.597 67.9676 100.723C67.6996 100.779 67.4591 100.9 67.1962 100.967C66.927 101.037 66.7964 100.87 66.601 100.702C66.1302 100.298 65.4399 100.099 64.8442 100.027C64.1758 99.9474 63.4823 100.047 62.8449 100.265C62.2245 100.476 61.6284 100.82 61.1799 101.321C60.9802 101.544 60.7989 101.798 60.681 102.078C60.6327 102.193 60.6247 102.261 60.5088 102.303C60.4016 102.342 60.2762 102.344 60.1656 102.381C59.0959 102.739 58.1812 103.558 57.6832 104.608C57.3927 105.221 57.255 106.3 57.2927 107.51C57.3304 108.72 58.4336 111.876 59.4655 113.027C60.3865 114.055 61.7403 114.733 63.0468 115.029C62.1796 116.011 61.6023 117.237 61.1755 118.484C60.7118 119.839 60.4248 121.247 60.3188 122.681C60.2182 124.043 60.2089 125.484 60.5316 126.818C60.8334 128.065 61.479 129.088 62.5566 129.737C63.0503 130.035 63.5814 130.258 64.1156 130.462C64.642 130.663 65.1701 130.859 65.7215 130.972C66.7652 131.185 67.9678 131.149 68.7718 130.326C69.0615 130.03 69.3802 129.657 69.5916 129.295C69.6676 129.165 69.7134 129.079 69.6211 128.952C69.5105 128.8 69.3315 128.683 69.1894 128.563C68.379 127.883 67.8773 126.975 67.7508 125.896C67.6225 124.802 67.9196 123.388 68.9948 122.911C70.322 122.321 71.7836 122.998 72.9632 123.629C73.4645 121.877 74.4939 120.3 76.1078 119.496C77.8933 118.608 79.9421 118.503 81.777 117.741C82.2551 117.542 82.7421 117.316 83.0941 116.911C83.2412 116.742 83.4138 116.523 83.4725 116.299C83.5497 116.005 83.3581 115.758 83.2102 115.529C82.4256 114.314 79.4502 111.858 77.9019 111.391Z" fill="#191847"/>
</g>
<g clip-path="url(#clip1)">
<path fill-rule="evenodd" clip-rule="evenodd" d="M59.0083 201.271L74.0004 252.886L81.052 291.64H88.1296L81.0646 201.271H59.0083Z" fill="#DDC2AB"/>
<path fill-rule="evenodd" clip-rule="evenodd" d="M52.2706 201.271C53.3167 228.084 52.9041 242.71 52.67 245.146C52.4359 247.582 51.1067 263.898 42.0493 292.457H49.4107C61.4057 265.059 65.593 248.743 66.9687 245.146C68.3445 241.548 72.4076 226.923 78.3397 201.271H52.2706Z" fill="#DDC2AB"/>
<path fill-rule="evenodd" clip-rule="evenodd" d="M58.6865 201.271C62.5862 219.032 69.331 247.383 78.9209 286.324H89.2727C90.0373 246.354 86.7847 220.048 81.1521 201.271H58.6865Z" fill="#EF7300"/>
<path fill-rule="evenodd" clip-rule="evenodd" d="M52.2184 201.271C53.2429 228.084 50.5878 254.501 42.3633 286.741H53.4081C65.4252 259.752 74.0382 233.465 79.9246 201.271H52.2184Z" fill="#FF8616"/>
<path fill-rule="evenodd" clip-rule="evenodd" d="M41 297.773L41.4062 291.231C43.7843 291.926 46.7629 291.653 50.342 290.413C54.1904 293.136 59.0351 294.996 64.876 295.992L64.876 295.992C65.3217 296.068 65.6213 296.491 65.5452 296.936C65.5403 296.965 65.5338 296.993 65.5258 297.021L64.9643 299H50.342H41.8123L41 297.773Z" fill="#040302" fill-opacity="0.75"/>
<path fill-rule="evenodd" clip-rule="evenodd" d="M79.4717 297.773L79.8779 291.231C82.2559 291.926 85.2346 291.653 88.8137 290.413C92.6621 293.136 97.5068 294.996 103.348 295.992L103.348 295.992C103.793 296.068 104.093 296.491 104.017 296.936C104.012 296.965 104.005 296.993 103.998 297.021L103.436 299H88.8137H80.284L79.4717 297.773Z" fill="#040302" fill-opacity="0.75"/>
</g>
<path fill-rule="evenodd" clip-rule="evenodd" d="M85.5234 160.41L102.392 151.171C105.197 147.84 107.961 145.253 110.683 143.41C111.515 143.063 112.97 142.853 111.609 145.267C110.249 147.682 108.926 150.283 109.62 151.027C110.313 151.771 112.041 150.732 112.868 151.968C113.419 152.792 110.466 154.094 104.01 155.873L91.7526 167.096L85.5234 160.41ZM111.942 168.205L119.352 164.135C120.392 160.179 121.634 158.188 123.08 158.163C124.191 157.647 122.257 162.645 124.362 162.212C126.468 161.778 131.607 157.956 132.493 158.732C133.803 159.88 132.635 163.406 131.258 165.16C128.686 168.437 126.556 169.558 121.292 171.026C118.539 171.793 115.564 173.332 112.364 175.641L111.942 168.205Z" fill="#DDC2AB"/>
<path fill-rule="evenodd" clip-rule="evenodd" d="M77.3083 158.352C83.2167 158.289 91.0955 157.042 99.5023 151.705L102.804 159.068C97.005 164.823 88.8514 169.551 81.722 169.351C76.1036 169.193 73.2322 162.397 77.3083 158.352Z" fill="#016B6B"/>
<path fill-rule="evenodd" clip-rule="evenodd" d="M85.2639 170.159C91.5364 171.724 102.055 169.879 116.82 164.625C120.482 172.202 122.175 177.603 121.898 180.829C109.233 187.446 98.3768 190.395 89.4332 190.59C89.7174 195.897 89.0714 200.947 86.9015 205.561C82.4406 215.046 56.3192 206.261 47.5364 207.99C42.0364 190.128 52.6709 182.869 52.6795 171.44C52.6888 158.924 62.7387 139.658 64.2174 139.658L77.7018 139.658C78.4458 149.217 82.1907 159.752 85.2639 170.159Z" fill="#008B8B"/>
<ellipse cx="88" cy="303.5" rx="75" ry="4.5" fill="#E4E4E4" fill-opacity="0.5"/>
<ellipse cx="237" cy="277.5" rx="75" ry="4.5" fill="#E4E4E4" fill-opacity="0.5"/>
<circle cx="298" cy="28" r="28" fill="#FFC978" fill-opacity="0.4"/>
<circle cx="19" cy="75" r="19" fill="#A9E5BB" fill-opacity="0.5"/>
<circle cx="162.5" cy="139.5" r="14.5" fill="#008B8B" fill-opacity="0.2"/>
<defs>
<clipPath id="clip0">
<rect width="26.911" height="46.7402" fill="white" transform="translate(57.2881 100)"/>
</clipPath>
<clipPath id="clip1">
<rect width="63.0285" height="97.7295" fill="white" transform="translate(41 201.271)"/>
</clipPath>
</defs>
</svg>
