<svg width="49" height="42" viewBox="0 0 49 42" fill="none" xmlns="http://www.w3.org/2000/svg">
<g clip-path="url(#clip0)">
<path d="M10.4497 30.2904C11.3944 30.2904 12.1602 29.5277 12.1602 28.5869C12.1602 27.6461 11.3944 26.8834 10.4497 26.8834C9.50506 26.8834 8.73926 27.6461 8.73926 28.5869C8.73926 29.5277 9.50506 30.2904 10.4497 30.2904Z" fill="#008B8B"/>
<path d="M17.2198 30.2904C18.1644 30.2904 18.9302 29.5277 18.9302 28.5869C18.9302 27.6461 18.1644 26.8834 17.2198 26.8834C16.2751 26.8834 15.5093 27.6461 15.5093 28.5869C15.5093 29.5277 16.2751 30.2904 17.2198 30.2904Z" fill="#008B8B"/>
<path d="M31.9815 30.2904C32.9261 30.2904 33.692 29.5277 33.692 28.5869C33.692 27.6461 32.9261 26.8834 31.9815 26.8834C31.0368 26.8834 30.271 27.6461 30.271 28.5869C30.271 29.5277 31.0368 30.2904 31.9815 30.2904Z" fill="#008B8B"/>
<path d="M38.7515 30.2904C39.6962 30.2904 40.462 29.5277 40.462 28.5869C40.462 27.6461 39.6962 26.8834 38.7515 26.8834C37.8068 26.8834 37.041 27.6461 37.041 28.5869C37.041 29.5277 37.8068 30.2904 38.7515 30.2904Z" fill="#008B8B"/>
<path d="M20.4251 35.229C18.8152 36.9898 16.501 38.1063 13.9138 38.1063C10.4641 38.1063 7.47433 36.1309 6.03696 33.2393H7.35934L3.67967 29.9611L0 33.2393H1.82546C3.47844 38.3211 8.26489 42 13.9138 42C17.7084 42 21.1006 40.3395 23.4292 37.7198L20.4251 35.229Z" fill="url(#paint0_linear)"/>
<path fill-rule="evenodd" clip-rule="evenodd" d="M27.4525 32.9673C27.2394 32.5533 25.9878 29.9574 26.6202 27.2413H26.649C27.497 23.2761 31.0186 20.3129 35.2445 20.3129C39.0966 20.3129 42.3738 22.7894 43.5525 26.2249H47.6059C46.3122 20.6135 41.267 16.4192 35.2301 16.4192C31.8235 16.4192 28.7188 17.7505 26.4477 19.9407V1.94683C26.4477 0.873211 25.5709 0 24.4929 0C23.4149 0 22.5381 0.873211 22.5381 1.94683V19.7875C20.2744 17.6977 17.2451 16.4192 13.9139 16.4192C10.5073 16.4192 7.40259 17.7505 5.13154 19.9407V1.94683C5.13154 0.873211 4.25475 0 3.16234 0C2.08432 0 1.20752 0.873211 1.20752 1.94683V26.1963H5.60588C6.79889 22.7751 10.0617 20.3129 13.9139 20.3129C18.1398 20.3129 21.6613 23.2904 22.5094 27.2413C22.5094 27.2413 22.6962 28.0143 22.6962 29.1023C22.6962 29.9325 22.725 31.5501 23.2137 32.9959C23.2198 33.0147 23.2287 33.0325 23.2402 33.0493C24.9316 38.2175 29.726 41.9571 35.3738 41.9571C40.9508 41.9571 45.7085 38.3067 47.4477 33.2393H49.0001L45.3204 29.9611L41.6407 33.2393H43.15C41.6551 36.045 38.7372 37.9489 35.3738 37.9489C31.9322 37.9489 28.9446 35.9425 27.4823 33.0246C27.4826 33.0246 27.4827 33.0245 27.4827 33.0245C27.4827 33.0245 27.4811 33.0216 27.478 33.0159C27.4699 32.9997 27.4619 32.9835 27.4539 32.9673H27.4525Z" fill="url(#paint1_linear)"/>
</g>
<defs>
<linearGradient id="paint0_linear" x1="11.7146" y1="29.9611" x2="11.7146" y2="42" gradientUnits="userSpaceOnUse">
<stop stop-color="#008B8B"/>
<stop offset="1" stop-color="#6BCEBD"/>
</linearGradient>
<linearGradient id="paint1_linear" x1="25.1038" y1="0" x2="25.1038" y2="41.9571" gradientUnits="userSpaceOnUse">
<stop stop-color="#008B8B"/>
<stop offset="1" stop-color="#6BCEBD"/>
</linearGradient>
<clipPath id="clip0">
<rect width="49" height="42" fill="white"/>
</clipPath>
</defs>
</svg>
