<svg width="218" height="210" viewBox="0 0 218 210" fill="none" xmlns="http://www.w3.org/2000/svg">
<g filter="url(#filter0_d)">
<path fill-rule="evenodd" clip-rule="evenodd" d="M63.8879 70.2745C68.5575 69.3993 74.6219 67.3092 80.5335 61.905L84.1757 67.279C80.3876 72.6504 74.5915 77.5374 68.9184 78.375C64.4476 79.0351 61.2251 74.0502 63.8879 70.2745Z" fill="#046666"/>
<g clip-path="url(#clip0)">
<path fill-rule="evenodd" clip-rule="evenodd" d="M86.0162 0.0546316C86.9175 -0.0558264 87.8794 -0.0168352 88.7176 0.340038C90.4999 1.09899 91.0065 3.21116 90.9821 4.92794C90.9557 6.77574 90.5645 8.79401 91.965 10.2828C92.6087 10.9673 93.4095 11.4911 94.0417 12.1882C94.7171 12.9331 95.2471 13.7854 95.6395 14.7006C96.36 16.3817 96.7136 18.3586 96.0548 20.1221C95.4746 21.6748 94.0151 23.0762 94.3305 24.8417C94.6594 26.6834 96.5105 28.0915 97.6678 29.4633C98.9775 31.0158 100.183 33 100.382 35.0359C100.571 36.987 99.7248 38.9603 98.4255 40.4351C95.8295 43.3822 91.9272 44.827 87.9926 44.818C86.322 44.8141 84.4306 44.7384 82.989 43.8379C82.5434 43.5595 82.3084 43.2473 82.0435 42.8131C81.806 42.4239 81.4923 42.1706 81.1292 41.8952C80.3314 41.2902 79.7552 40.4748 79.3876 39.562C77.9598 36.0167 79.1009 31.6307 81.0995 28.4825C81.5731 27.7366 81.9608 27.0188 81.7307 26.1297C81.4907 25.2017 80.9006 24.3646 80.3787 23.5669C79.863 22.7785 79.2742 22.0263 78.8711 21.1738C78.449 20.2808 78.3301 19.3457 78.4047 18.3684C78.5449 16.5325 79.3349 14.8384 80.4534 13.362C81.5307 11.9399 82.7957 10.5791 82.7985 8.7157C82.8016 6.74074 81.4854 4.9839 82.0461 2.97598C82.2783 2.14453 82.7446 1.29147 83.4962 0.793003C84.2169 0.31494 85.1685 0.158516 86.0162 0.0546316Z" fill="#28672E"/>
<path fill-rule="evenodd" clip-rule="evenodd" d="M85.4273 3.21188C85.4442 2.94664 85.7578 2.78755 86.0047 2.85677C86.3297 2.94792 86.3235 3.25255 86.3149 3.52395C86.2886 4.35817 86.409 5.16889 86.6089 5.97832C87.0244 7.66121 87.7922 9.21172 88.4006 10.8283C89.0084 12.4435 89.2937 14.1111 88.9371 15.8202C88.601 17.4317 88.0729 19.0014 87.7289 20.6149C87.4257 22.0369 87.1031 23.5366 87.5648 24.9551C88.0091 26.3204 88.9915 27.4324 89.6988 28.6663C91.1631 31.2205 91.8128 34.0542 91.8997 36.9702C91.9399 38.3243 91.9037 39.6909 91.5905 41.0189C91.4103 41.7837 91.1681 42.8171 90.5148 43.3451C90.2136 43.5886 89.6984 43.6728 89.4448 43.3122C89.2068 42.974 89.4156 42.4505 89.4912 42.0901C89.8184 40.5298 89.8843 38.9353 89.8059 37.351C89.7301 35.8164 89.5494 34.2844 89.0679 32.8188C88.621 31.4587 87.9422 30.2371 87.1432 29.0473C86.329 27.8348 85.4826 26.6197 85.1462 25.1831C84.8044 23.7239 85.0821 22.2392 85.4534 20.8079C85.846 19.2941 86.3604 17.8236 86.8921 16.3507C87.4102 14.9155 87.5939 13.5576 87.3078 12.0555C86.7428 9.08781 85.2302 6.30233 85.4273 3.21188Z" fill="#144929"/>
<path fill-rule="evenodd" clip-rule="evenodd" d="M109.813 3.65565C110.929 3.99536 112.036 4.54347 112.831 5.40292C114.522 7.23058 114.003 9.99287 113.07 12.0104C112.065 14.1819 110.543 16.3647 111.401 18.8562C111.796 20.0016 112.459 21.039 112.833 22.1932C113.233 23.4266 113.405 24.7112 113.383 25.9983C113.343 28.3624 112.716 30.885 111.014 32.6267C109.515 34.1602 107.065 35.0558 106.505 37.3083C105.92 39.6581 107.349 42.2893 107.984 44.5156C108.702 47.0351 109.071 50.0109 108.23 52.522C107.425 54.9286 105.392 56.8204 103.091 57.8866C98.4937 60.0171 93.1554 59.6893 88.5452 57.6254C86.5878 56.749 84.4093 55.6725 83.1929 53.8551C82.817 53.2934 82.7058 52.8014 82.6239 52.1498C82.5504 51.5655 82.3159 51.1023 82.0351 50.5871C81.4182 49.4552 81.1721 48.1902 81.2218 46.9189C81.4152 41.981 85.0647 37.3896 89.0676 34.7093C90.0161 34.0744 90.849 33.4279 91.0476 32.2564C91.2551 31.0335 91.004 29.7357 90.8122 28.5199C90.6228 27.3184 90.3285 26.1216 90.3049 24.9031C90.2803 23.6267 90.6336 22.4587 91.236 21.3419C92.3678 19.2439 94.1871 17.6526 96.2769 16.4903C98.2898 15.3707 100.49 14.4215 101.476 12.2193C102.52 9.88527 101.902 7.12071 103.617 5.03871C104.328 4.17658 105.324 3.41108 106.468 3.21378C107.566 3.02453 108.764 3.33615 109.813 3.65565Z" fill="#238402"/>
<path fill-rule="evenodd" clip-rule="evenodd" d="M107.535 7.51521C107.693 7.20998 108.143 7.1865 108.396 7.39828C108.728 7.6771 108.562 8.03457 108.41 8.35146C107.944 9.32554 107.661 10.3489 107.472 11.4126C107.08 13.624 107.168 15.8639 107.035 18.0981C106.903 20.3304 106.366 22.4553 105.056 24.2918C103.822 26.0235 102.385 27.6047 101.14 29.3346C100.043 30.8592 98.8832 32.4655 98.6826 34.3881C98.4893 36.2386 99.0574 38.0719 99.2403 39.9051C99.619 43.6998 98.8992 47.397 97.4784 50.896C96.8185 52.5208 96.0627 54.12 95.0031 55.5281C94.3931 56.339 93.5703 57.4355 92.5308 57.7173C92.0515 57.8472 91.4051 57.676 91.2969 57.1157C91.1951 56.5901 91.7126 56.0799 91.9891 55.6928C93.1864 54.0172 94.0959 52.1635 94.8314 50.2461C95.5439 48.389 96.1324 46.4797 96.3346 44.4909C96.5221 42.6453 96.3661 40.8417 96.053 39.0126C95.7341 37.1487 95.3787 35.2647 95.7354 33.3865C96.0976 31.4788 97.1974 29.8665 98.3788 28.3668C99.6283 26.7804 100.997 25.3095 102.388 23.8448C103.743 22.4177 104.667 20.9061 105.117 18.9768C106.005 15.1653 105.691 11.0714 107.535 7.51521Z" fill="#15522D"/>
<path fill-rule="evenodd" clip-rule="evenodd" d="M75.3338 17.6747C77.1884 17.6747 78.8188 18.6608 79.9423 20.0601C81.2574 21.6982 81.523 23.6987 82.0571 25.651C82.3228 26.6226 82.7798 27.5871 83.5808 28.2472C84.3093 28.8476 85.2341 28.9677 86.1061 29.261C87.8487 29.8472 89.2559 31.2592 89.8116 32.9821C90.4896 35.0837 89.7715 37.2032 89.8951 39.333C90.0086 41.289 91.9312 42.5093 93.478 43.447C95.0032 44.3716 96.3773 45.2371 96.8366 47.0383C97.3238 48.9487 97.4872 51.0811 96.8125 52.9682C95.6891 56.1105 92.4015 57.4942 89.2249 57.7087C86.3419 57.9034 82.717 57.5977 80.5519 55.4985C79.2564 54.2423 78.7872 52.4854 78.8454 50.7375C78.8816 49.6505 79.0962 48.5737 79.3737 47.5233C79.5704 46.7788 79.8361 46.0376 79.9118 45.2683C80.1131 43.2217 78.2274 42.8286 76.6222 42.2666C74.5826 41.5525 73.1547 40.2036 72.1617 38.3243C71.237 36.5745 70.849 34.6103 71.4034 32.6838C71.6865 31.7 72.2 30.8076 72.8964 30.0485C73.2029 29.7143 73.635 29.4357 73.9117 29.0846C74.17 28.7568 74.1138 28.332 74.0248 27.9481C73.6132 26.1745 72.331 24.7059 71.8724 22.9356C71.4584 21.3376 71.7032 19.3488 73.1596 18.3179C73.7888 17.8724 74.5647 17.6796 75.3338 17.6747Z" fill="#409349"/>
<path fill-rule="evenodd" clip-rule="evenodd" d="M77.8609 22.2958C79.8265 24.3962 80.3608 27.2459 80.5176 30.0079C80.6054 31.5567 80.514 33.1904 80.9676 34.6927C81.3557 35.9785 82.2656 36.9614 83.2035 37.8903C85.0915 39.7604 87.197 41.6615 87.7492 44.3678C88.0732 45.9561 87.8545 47.5966 88.3022 49.1674C88.7093 50.5951 89.4261 51.9979 90.2979 53.2036C90.9999 54.1745 91.9144 54.9178 92.6817 55.8228C92.9158 56.0991 93.2512 56.5058 93.1546 56.8958C93.0415 57.3526 92.4615 57.4972 92.05 57.4254C91.0906 57.2582 90.283 56.3392 89.6557 55.6711C88.7384 54.6941 87.9589 53.6433 87.3253 52.4646C86.622 51.1556 86.0556 49.7666 85.8137 48.298C85.5626 46.7744 85.6875 45.1866 85.1142 43.7244C84.1493 41.2641 81.809 39.8123 80.1169 37.8947C78.0088 35.5053 78.3232 32.5314 78.5391 29.5922C78.6577 27.977 78.7756 26.1529 77.962 24.6781C77.6514 24.1152 76.959 23.5903 76.8254 22.9504C76.7031 22.3642 77.3707 21.7717 77.8609 22.2958Z" fill="#15522D"/>
<path fill-rule="evenodd" clip-rule="evenodd" d="M79.957 56.8116C79.9572 68.8237 81.9113 75.1176 92.2277 75.1176C102.544 75.1176 104.498 68.8237 104.498 56.8116H79.957Z" fill="#6BCEBD"/>
</g>
<path fill-rule="evenodd" clip-rule="evenodd" d="M92.6874 73.2434L97.9861 68.9819C98.257 65.7012 98.9632 63.9499 100.105 63.7282C100.912 63.1634 100.078 67.3956 101.685 66.7578C103.292 66.1199 106.828 62.3723 107.637 62.8636C108.835 63.5905 108.402 66.5479 107.557 68.1302C105.978 71.0875 104.448 72.2735 100.484 74.1726C98.4121 75.1655 96.2705 76.8005 94.0597 79.0777L92.6874 73.2434Z" fill="#915B3C"/>
<path fill-rule="evenodd" clip-rule="evenodd" d="M51.3642 49.778C49.078 48.2011 47.2305 46.0127 46.6761 43.1539C45.0785 34.9171 56.7984 33.6801 60.0779 37.174C63.3574 40.6679 65.8684 51.0882 63.2369 52.5757C62.1875 53.1688 59.5953 53.1005 56.7564 52.2814L61.1987 62.7335L52.1403 65.163L51.3642 49.778Z" fill="#915B3C"/>
<path fill-rule="evenodd" clip-rule="evenodd" d="M61.4236 38.7768C61.1923 38.2719 60.8158 37.7434 60.5049 37.2904C60.1041 36.7065 59.6032 36.2175 59.0765 35.7712C58.085 34.931 56.9775 34.2292 55.8231 33.7097C53.7144 32.761 51.2935 32.5368 49.1981 33.3824C48.1402 33.8094 47.1903 34.5117 46.4727 35.4491C45.8244 36.2961 45.2865 37.4311 44.2471 37.7811C43.1161 38.1618 41.7896 37.4283 40.6991 37.0481C39.4695 36.6195 38.2249 36.4007 36.9555 36.5263C34.8291 36.7369 33.1002 37.9388 32.1443 39.9877C31.1272 42.1681 30.7401 45.0693 32.3523 47.1644C32.6519 47.5539 32.9854 47.8606 33.4041 48.0766C33.788 48.2746 34.3395 48.447 34.5848 48.8622C34.8454 49.3036 34.613 50.0256 34.5742 50.4973C34.5187 51.1732 34.5108 51.8691 34.7547 52.5222C35.1552 53.5946 36.1277 54.4602 37.0512 54.988C37.991 55.5251 39.018 55.7021 40.0464 55.6349C40.7331 55.59 41.4186 55.483 42.068 55.2566C42.3905 55.1441 42.6562 54.9749 42.9554 54.8167C43.2464 54.6628 43.4416 54.6987 43.7501 54.7983C45.1831 55.2611 46.5782 55.2147 47.957 54.7189C49.1207 54.3004 50.4153 53.6438 51.1678 52.567C52.0034 51.3712 51.6473 50.1268 51.036 48.8592C51.3405 48.9205 52.1064 48.8036 51.5196 48.3912C51.2872 48.2279 50.9316 48.2315 50.6726 48.1682C50.3709 48.0946 50.054 47.9799 49.7868 47.7995C48.7078 47.0711 49.0235 44.9152 49.9749 44.3187C51.3883 43.4325 52.3167 45.5202 53.5671 45.7892C54.2861 45.9439 54.8287 45.3234 55.1811 44.7438C55.6533 43.9675 55.8707 43.0484 56.0252 42.131C56.1525 41.3755 56.256 40.6163 56.3901 39.8626C56.4527 39.5106 56.7227 38.4906 56.3736 38.2053C57.4178 37.6892 58.7693 37.8185 59.8804 38.1655C60.3396 38.3089 60.7124 38.5029 61.0394 38.8858C61.1095 38.9679 61.282 39.2214 61.4078 39.2C61.6418 39.1601 61.4817 38.9036 61.4236 38.7768Z" fill="#191847"/>
<path fill-rule="evenodd" clip-rule="evenodd" d="M42.1864 134.887C51.5602 137.512 59.6476 138.824 66.4486 138.824C73.2497 138.824 79.5668 136.803 85.4 132.762C76.2269 130.068 68.6724 128.721 62.7366 128.721C56.8008 128.721 49.9508 130.777 42.1864 134.887Z" fill="#A9E5BB"/>
<path fill-rule="evenodd" clip-rule="evenodd" d="M74.5633 142.606C74.4729 142.47 74.3966 142.323 74.3361 142.162C73.0831 138.846 53.0136 103.065 51.0142 96.5237H73.6096C75.1298 101.497 81.972 132.71 82.9349 138.937C85.9731 148.76 92.2284 180.572 93.0269 182.776C93.867 185.095 89.1403 187.51 87.8807 184.66C85.8765 180.124 81.1012 167.576 78.975 159.913C76.9816 152.73 75.3585 146.267 74.5633 142.606Z" fill="#784931"/>
<path fill-rule="evenodd" clip-rule="evenodd" d="M56.0771 146.975C46.9016 149.296 13.3399 153.493 11.0367 154.151C8.66748 154.828 6.59012 149.94 9.51862 148.881C14.1783 147.196 27.018 143.303 34.8027 141.715C41.0643 140.437 46.7781 139.394 50.6141 138.784C50.2892 127.998 48.8036 102.114 49.7773 96.5237H69.77C68.8363 101.885 60.9431 141 59.476 144.916C59.0104 146.314 57.6212 146.931 56.0771 146.975Z" fill="#915B3C"/>
<path fill-rule="evenodd" clip-rule="evenodd" d="M9.73139 147.579C8.50625 147.351 7.60841 147.287 7.03786 147.388C6.34393 147.511 5.35171 147.805 4.06118 148.271C4.20313 149.077 5.47879 156.319 7.88819 169.996C9.85224 170.231 10.8015 169.728 10.7359 168.485C10.6703 167.243 10.6265 166.209 10.6046 165.383L13.3231 154.492C13.3754 154.282 13.248 154.07 13.0387 154.018C13.0351 154.017 13.0315 154.016 13.0279 154.015L11.3406 153.644C10.6174 152.61 10.1938 151.742 10.0698 151.038C9.969 150.466 10.0606 149.635 10.3447 148.546L10.3447 148.546C10.4537 148.128 10.2035 147.701 9.78585 147.591C9.76785 147.587 9.74968 147.583 9.73139 147.579Z" fill="#D5D5D5"/>
<path fill-rule="evenodd" clip-rule="evenodd" d="M86.4465 184.291C86.0093 185.459 85.7908 186.333 85.7908 186.912C85.7908 187.618 85.9082 188.647 86.1429 190C86.9603 190 94.3066 190 108.182 190C108.754 188.105 108.424 187.082 107.19 186.931C105.956 186.78 104.931 186.643 104.115 186.521L93.8714 181.95C93.6743 181.863 93.4433 181.951 93.3554 182.148C93.3539 182.152 93.3525 182.155 93.3511 182.159L92.6926 183.757C91.5503 184.291 90.6221 184.558 89.908 184.558C89.3277 184.558 88.5264 184.323 87.504 183.854L87.504 183.854C87.1116 183.674 86.6478 183.846 86.4679 184.239C86.4602 184.256 86.453 184.273 86.4465 184.291Z" fill="#D5D5D5"/>
<path fill-rule="evenodd" clip-rule="evenodd" d="M50.5144 96.418C58.767 93.8778 66.5755 93.8778 73.9398 96.418C76.5019 108.994 82.7276 113.986 83.8224 133.268C71.3776 139.921 56.0047 128.523 43.1939 135.011C39.5337 125.937 44.658 104.083 50.5144 96.418Z" fill="#008B8B"/>
<path fill-rule="evenodd" clip-rule="evenodd" d="M69.3421 78.9608C74.1292 79.3943 81.5331 76.58 91.5538 70.5179C95.2791 76.052 97.2664 80.1154 97.5156 82.7081C89.2138 89.58 81.7186 93.3135 75.2314 94.6176C76.1793 98.7871 76.4139 102.872 75.4776 106.808C73.5527 114.899 53.3 111.295 47.1442 113.794C40.6442 100.345 47.3766 93.2242 45.7871 84.1647C44.0464 74.2436 48.6767 57.6826 49.7537 57.4925L59.5755 55.759C61.452 63.2393 65.6505 71.1073 69.3421 78.9608Z" fill="#008B8B"/>
<path fill-rule="evenodd" clip-rule="evenodd" d="M178.287 45.6104C179.477 43.1039 179.984 40.2877 179.037 37.5381C176.309 29.6157 165.556 34.4036 164.463 39.0646C163.369 43.7256 166.396 53.9929 169.414 53.9642C170.617 53.9527 172.825 52.5979 174.872 50.4707L176.244 61.7308L185.291 59.3046L178.287 45.6104Z" fill="#D4A181"/>
<path fill-rule="evenodd" clip-rule="evenodd" d="M175.004 45.8823C176.703 47.7368 178.689 48.9438 180.239 48.5281C183.183 47.7384 184.221 43.2371 183.087 39.0009C183.048 38.8521 183.005 38.7051 182.96 38.5599C186.647 39.8638 190.176 43.4366 194.297 42.3314C199.903 40.8277 199.1 28.9119 191.267 31.0126C185.94 32.4413 183.528 33.9215 181.577 35.6768C180.795 34.5394 179.833 33.6649 178.805 33.1497C178.545 32.9782 178.181 32.845 177.733 32.7513C177.456 32.6838 177.177 32.6431 176.898 32.6309C175.402 32.4952 173.335 32.6709 171.111 33.1849C170.696 33.2808 170.291 33.385 169.898 33.496C169.335 31.4195 167.199 30.1887 165.122 30.746C163.04 31.3043 161.804 33.4461 162.362 35.5298C162.902 37.545 164.921 38.7678 166.936 38.3411C168.166 38.3873 169.696 38.2534 171.344 37.9278C171.345 38.5618 171.44 39.257 171.643 40.0168C171.823 40.6877 172.087 41.3793 172.417 42.0652C172.656 41.5532 173.053 41.1545 173.53 41.0267C174.863 40.6691 176.085 41.5181 176.397 42.6839C176.793 44.1634 176.227 45.4626 175.004 45.8823Z" fill="#191847"/>
<path fill-rule="evenodd" clip-rule="evenodd" d="M196.83 93.8342L182.535 143.138L175.812 180.157H169.063L175.8 93.8342H196.83Z" fill="#BA8B72"/>
<path fill-rule="evenodd" clip-rule="evenodd" d="M203.254 93.8342C202.256 119.448 202.65 133.418 202.873 135.745C203.096 138.072 204.364 153.657 213 180.938H205.981C194.544 154.767 190.551 139.181 189.24 135.745C187.928 132.308 184.054 118.338 178.398 93.8342H203.254Z" fill="#D4A181"/>
<path fill-rule="evenodd" clip-rule="evenodd" d="M197.137 93.8342C193.418 110.8 186.987 137.882 177.844 175.079H167.974C167.244 136.899 170.346 111.771 175.716 93.8342H197.137Z" fill="#FF7A00"/>
<path fill-rule="evenodd" clip-rule="evenodd" d="M203.304 93.8342C202.327 119.448 204.858 144.682 212.7 175.478H202.169C190.711 149.697 182.499 124.588 176.887 93.8342H203.304Z" fill="#FF8616"/>
<path fill-rule="evenodd" clip-rule="evenodd" d="M214 186.016L213.613 179.766C211.345 180.43 208.505 180.17 205.093 178.985C201.423 181.587 196.804 183.363 191.235 184.315C190.81 184.387 190.524 184.791 190.597 185.216C190.601 185.244 190.608 185.271 190.615 185.298L191.151 187.188H205.093H213.225L214 186.016Z" fill="#191847"/>
<path fill-rule="evenodd" clip-rule="evenodd" d="M177.318 186.016L176.931 179.766C174.663 180.43 171.823 180.17 168.411 178.985C164.741 181.587 160.122 183.363 154.553 184.315C154.128 184.387 153.842 184.791 153.915 185.216C153.92 185.244 153.926 185.271 153.933 185.298L154.469 187.188H168.411H176.544L177.318 186.016Z" fill="#191847"/>
<path fill-rule="evenodd" clip-rule="evenodd" d="M168.908 71.876L154.281 66.9176C151.598 64.6725 149.052 63.0105 146.642 61.9317C145.936 61.7729 144.756 61.8095 146.168 63.531C147.581 65.2525 148.989 67.1268 148.545 67.8124C148.101 68.498 146.589 67.9166 146.107 69.0104C145.786 69.7396 148.303 70.3578 153.657 70.8652L164.914 78.0374L168.908 71.876ZM149.103 81.7331L142.677 79.5454C141.303 76.5592 140.042 75.1572 138.896 75.3394C137.945 75.0853 140.172 78.772 138.446 78.7228C136.721 78.6735 132.124 76.3654 131.532 77.1032C130.656 78.1949 132.071 80.8223 133.404 82.0184C135.895 84.2537 137.736 84.8437 142.103 85.2708C144.387 85.4941 146.955 86.2963 149.807 87.6775L149.103 81.7331Z" fill="#D4A181"/>
<path fill-rule="evenodd" clip-rule="evenodd" d="M175.117 69.1006C170.436 69.8758 164.032 69.9877 156.64 66.9372L155.056 73.2257C160.444 76.9714 167.551 79.576 173.161 78.4225C177.582 77.5135 178.905 71.7336 175.117 69.1006Z" fill="#57B4A4"/>
<path fill-rule="evenodd" clip-rule="evenodd" d="M170.473 79.5566C165.731 81.6702 157.155 81.6781 144.747 79.5802C142.908 86.0883 142.322 90.6 142.991 93.1152C153.929 96.5843 162.925 97.4041 170.024 96.31C170.54 100.55 171.754 104.457 174.114 107.806C178.964 114.691 198.395 104.093 205.582 104.235C207.44 89.3294 198.019 85.0679 196.418 76.0226C194.666 66.1171 184.032 52.2707 182.863 52.4771L172.2 54.359C172.944 62.0289 171.452 70.8899 170.473 79.5566Z" fill="#6BCEBD"/>
</g>
<defs>
<filter id="filter0_d" x="0" y="0" width="218" height="218" filterUnits="userSpaceOnUse" color-interpolation-filters="sRGB">
<feFlood flood-opacity="0" result="BackgroundImageFix"/>
<feColorMatrix in="SourceAlpha" type="matrix" values="0 0 0 0 0 0 0 0 0 0 0 0 0 0 0 0 0 0 127 0"/>
<feOffset dy="4"/>
<feGaussianBlur stdDeviation="2"/>
<feColorMatrix type="matrix" values="0 0 0 0 0 0 0 0 0 0 0 0 0 0 0 0 0 0 0.25 0"/>
<feBlend mode="normal" in2="BackgroundImageFix" result="effect1_dropShadow"/>
<feBlend mode="normal" in="SourceGraphic" in2="effect1_dropShadow" result="shape"/>
</filter>
<clipPath id="clip0">
<rect width="42.79" height="75.1176" fill="white" transform="translate(71.1473)"/>
</clipPath>
</defs>
</svg>
