<svg width="29" height="29" viewBox="0 0 29 29" fill="none" xmlns="http://www.w3.org/2000/svg">
<path d="M14.5 0C6.49263 0 0 6.49263 0 14.5C0 22.5074 6.49263 29 14.5 29C22.5074 29 29 22.5074 29 14.5C29 6.49263 22.5074 0 14.5 0ZM20.7143 15.2768C20.7143 15.4192 20.5978 15.5357 20.4554 15.5357H15.5357V20.4554C15.5357 20.5978 15.4192 20.7143 15.2768 20.7143H13.7232C13.5808 20.7143 13.4643 20.5978 13.4643 20.4554V15.5357H8.54464C8.40223 15.5357 8.28571 15.4192 8.28571 15.2768V13.7232C8.28571 13.5808 8.40223 13.4643 8.54464 13.4643H13.4643V8.54464C13.4643 8.40223 13.5808 8.28571 13.7232 8.28571H15.2768C15.4192 8.28571 15.5357 8.40223 15.5357 8.54464V13.4643H20.4554C20.5978 13.4643 20.7143 13.5808 20.7143 13.7232V15.2768Z" fill="#008B8B"/>
</svg>
