<svg width="28" height="30" viewBox="0 0 28 30" fill="none" xmlns="http://www.w3.org/2000/svg">
<g filter="url(#filter0_d)">
<path fill-rule="evenodd" clip-rule="evenodd" d="M13.99 2C8.47 2 4 6.48 4 12C4 17.52 8.47 22 13.99 22C19.52 22 24 17.52 24 12C24 6.48 19.52 2 13.99 2ZM14 20C9.58 20 6 16.42 6 12C6 7.58 9.58 4 14 4C18.42 4 22 7.58 22 12C22 16.42 18.42 20 14 20ZM17.5 11C18.33 11 19 10.33 19 9.5C19 8.67 18.33 8 17.5 8C16.67 8 16 8.67 16 9.5C16 10.33 16.67 11 17.5 11ZM10.5 11C11.33 11 12 10.33 12 9.5C12 8.67 11.33 8 10.5 8C9.67 8 9 8.67 9 9.5C9 10.33 9.67 11 10.5 11ZM14 17.5C16.33 17.5 18.31 16.04 19.11 14H8.89C9.69 16.04 11.67 17.5 14 17.5Z" fill="white"/>
</g>
<defs>
<filter id="filter0_d" x="0" y="2" width="28" height="28" filterUnits="userSpaceOnUse" color-interpolation-filters="sRGB">
<feFlood flood-opacity="0" result="BackgroundImageFix"/>
<feColorMatrix in="SourceAlpha" type="matrix" values="0 0 0 0 0 0 0 0 0 0 0 0 0 0 0 0 0 0 127 0"/>
<feOffset dy="4"/>
<feGaussianBlur stdDeviation="2"/>
<feColorMatrix type="matrix" values="0 0 0 0 0 0 0 0 0 0 0 0 0 0 0 0 0 0 0.25 0"/>
<feBlend mode="normal" in2="BackgroundImageFix" result="effect1_dropShadow"/>
<feBlend mode="normal" in="SourceGraphic" in2="effect1_dropShadow" result="shape"/>
</filter>
</defs>
</svg>
