<svg width="31" height="31" viewBox="0 0 31 31" fill="none" xmlns="http://www.w3.org/2000/svg">
<path d="M19.3702 13.5673C19.4431 13.64 19.5009 13.7263 19.5403 13.8214C19.5798 13.9164 19.6001 14.0183 19.6001 14.1213C19.6001 14.2242 19.5798 14.3261 19.5403 14.4211C19.5009 14.5162 19.4431 14.6025 19.3702 14.6752L14.6755 19.3699C14.6028 19.4428 14.5165 19.5006 14.4214 19.5401C14.3263 19.5795 14.2244 19.5998 14.1215 19.5998C14.0186 19.5998 13.9167 19.5795 13.8216 19.5401C13.7266 19.5006 13.6402 19.4428 13.5675 19.3699L11.2202 17.0226C11.1474 16.9498 11.0897 16.8635 11.0504 16.7684C11.011 16.6734 10.9907 16.5715 10.9907 16.4686C10.9907 16.3657 11.011 16.2638 11.0504 16.1688C11.0897 16.0737 11.1474 15.9874 11.2202 15.9146C11.3671 15.7677 11.5664 15.6852 11.7742 15.6852C11.877 15.6852 11.9789 15.7054 12.074 15.7448C12.169 15.7842 12.2554 15.8419 12.3281 15.9146L14.1215 17.7096L18.2623 13.5673C18.3349 13.4944 18.4213 13.4366 18.5163 13.3972C18.6114 13.3577 18.7133 13.3374 18.8162 13.3374C18.9192 13.3374 19.0211 13.3577 19.1161 13.3972C19.2112 13.4366 19.2975 13.4944 19.3702 13.5673Z" fill="white"/>
<path d="M7.86193 2.38452C8.06945 2.38452 8.26847 2.46696 8.41521 2.6137C8.56194 2.76043 8.64438 2.95945 8.64438 3.16697V3.94943H21.1636V3.16697C21.1636 2.95945 21.246 2.76043 21.3928 2.6137C21.5395 2.46696 21.7385 2.38452 21.9461 2.38452C22.1536 2.38452 22.3526 2.46696 22.4993 2.6137C22.6461 2.76043 22.7285 2.95945 22.7285 3.16697V3.94943H24.2934C25.1235 3.94943 25.9196 4.27917 26.5065 4.86612C27.0935 5.45308 27.4232 6.24916 27.4232 7.07923V24.2932C27.4232 25.1233 27.0935 25.9193 26.5065 26.5063C25.9196 27.0932 25.1235 27.423 24.2934 27.423H5.51457C4.6845 27.423 3.88842 27.0932 3.30147 26.5063C2.71451 25.9193 2.38477 25.1233 2.38477 24.2932V7.07923C2.38477 6.24916 2.71451 5.45308 3.30147 4.86612C3.88842 4.27917 4.6845 3.94943 5.51457 3.94943H7.07948V3.16697C7.07948 2.95945 7.16191 2.76043 7.30865 2.6137C7.45539 2.46696 7.65441 2.38452 7.86193 2.38452V2.38452ZM3.94967 8.64414V24.2932C3.94967 24.7082 4.11454 25.1063 4.40802 25.3997C4.7015 25.6932 5.09953 25.8581 5.51457 25.8581H24.2934C24.7085 25.8581 25.1065 25.6932 25.4 25.3997C25.6934 25.1063 25.8583 24.7082 25.8583 24.2932V8.64414H3.94967Z" fill="white"/>
</svg>
