<svg width="30" height="30" viewBox="0 0 30 30" fill="none" xmlns="http://www.w3.org/2000/svg">
<path fill-rule="evenodd" clip-rule="evenodd" d="M10.3125 14.4089C9.32063 14.4089 8.51562 15.2192 8.51562 16.2176C8.51562 17.216 9.32063 18.0263 10.3125 18.0263C11.3044 18.0263 12.1094 17.216 12.1094 16.2176C12.1094 15.2192 11.3044 14.4089 10.3125 14.4089ZM18.9375 14.4089C17.9456 14.4089 17.1406 15.2192 17.1406 16.2176C17.1406 17.216 17.9456 18.0263 18.9375 18.0263C19.9294 18.0263 20.7344 17.216 20.7344 16.2176C20.7344 15.2192 19.9294 14.4089 18.9375 14.4089ZM14.75 0.301197C6.746 0.301197 0.25 6.7972 0.25 14.8012C0.25 22.8052 6.746 29.3012 14.75 29.3012C22.754 29.3012 29.25 22.8052 29.25 14.8012C29.25 6.7972 22.754 0.301197 14.75 0.301197ZM14.625 26.3463C8.28563 26.3463 3.125 21.1517 3.125 14.7707C3.125 14.3511 3.15375 13.9315 3.19688 13.5263C6.58938 12.007 9.2775 9.21442 10.6863 5.75621C13.2881 9.4604 17.5719 11.8768 22.4163 11.8768C23.5375 11.8768 24.6156 11.7466 25.6506 11.5006C25.9525 12.5279 26.125 13.6276 26.125 14.7707C26.125 21.1517 20.9644 26.3463 14.625 26.3463Z" fill="#008B8B"/>
</svg>
