<svg width="29" height="29" viewBox="0 0 29 29" fill="none" xmlns="http://www.w3.org/2000/svg">
<path fill-rule="evenodd" clip-rule="evenodd" d="M24.953 15.879C25.0093 15.4288 25.0515 14.9786 25.0515 14.5003C25.0515 14.0219 25.0093 13.5717 24.953 13.1215L27.9215 10.8002C28.1888 10.5892 28.2591 10.2093 28.0903 9.89983L25.2766 5.03208C25.1077 4.72257 24.7279 4.61002 24.4184 4.72257L20.9153 6.12943C20.1837 5.56669 19.3959 5.10242 18.5377 4.75071L18.0031 1.02252C17.9609 0.684876 17.6654 0.431641 17.3137 0.431641H11.6863C11.3346 0.431641 11.0391 0.684876 10.9969 1.02252L10.4623 4.75071C9.60412 5.10242 8.81627 5.58076 8.0847 6.12943L4.58162 4.72257C4.25804 4.59595 3.89225 4.72257 3.72343 5.03208L0.909704 9.89983C0.726812 10.2093 0.811224 10.5892 1.07853 10.8002L4.04701 13.1215C3.99073 13.5717 3.94853 14.036 3.94853 14.5003C3.94853 14.9645 3.99073 15.4288 4.04701 15.879L1.07853 18.2003C0.811224 18.4113 0.740881 18.7912 0.909704 19.1007L3.72343 23.9685C3.89225 24.278 4.27211 24.3905 4.58162 24.278L8.0847 22.8711C8.81627 23.4338 9.60412 23.8981 10.4623 24.2498L10.9969 27.978C11.0391 28.3157 11.3346 28.5689 11.6863 28.5689H17.3137C17.6654 28.5689 17.9609 28.3157 18.0031 27.978L18.5377 24.2498C19.3959 23.8981 20.1837 23.4198 20.9153 22.8711L24.4184 24.278C24.742 24.4046 25.1077 24.278 25.2766 23.9685L28.0903 19.1007C28.2591 18.7912 28.1888 18.4113 27.9215 18.2003L24.953 15.879ZM14.5 19.4238C11.7847 19.4238 9.57597 17.215 9.57597 14.4998C9.57597 11.7846 11.7847 9.57578 14.5 9.57578C17.2152 9.57578 19.424 11.7846 19.424 14.4998C19.424 17.215 17.2152 19.4238 14.5 19.4238Z" fill="#008B8B"/>
</svg>
