<svg width="24" height="24" viewBox="0 0 24 24" fill="none" xmlns="http://www.w3.org/2000/svg">
<path fill-rule="evenodd" clip-rule="evenodd" d="M17.0984 15.1278H16.0605L15.6926 14.7731C16.9802 13.2752 17.7554 11.3307 17.7554 9.21532C17.7554 4.49846 13.932 0.675042 9.21511 0.675042C4.49825 0.675042 0.674835 4.49846 0.674835 9.21532C0.674835 13.9322 4.49825 17.7556 9.21511 17.7556C11.3305 17.7556 13.275 16.9804 14.7729 15.6928L15.1276 16.0607V17.0987L21.6971 23.655L23.6548 21.6973L17.0984 15.1278ZM9.21496 15.1279C5.94338 15.1279 3.30246 12.4869 3.30246 9.21535C3.30246 5.94377 5.94338 3.30285 9.21496 3.30285C12.4865 3.30285 15.1275 5.94377 15.1275 9.21535C15.1275 12.4869 12.4865 15.1279 9.21496 15.1279Z" fill="url(#paint0_linear)"/>
<defs>
<linearGradient id="paint0_linear" x1="12.1648" y1="0.675042" x2="12.1648" y2="23.655" gradientUnits="userSpaceOnUse">
<stop stop-color="#008B8B"/>
<stop offset="1" stop-color="#6BCEBD"/>
</linearGradient>
</defs>
</svg>
