<svg width="31" height="31" viewBox="0 0 31 31" fill="none" xmlns="http://www.w3.org/2000/svg">
<path fill-rule="evenodd" clip-rule="evenodd" d="M15.5 19.6334C17.7828 19.6334 19.6334 17.7828 19.6334 15.5C19.6334 13.2173 17.7828 11.3667 15.5 11.3667C13.2173 11.3667 11.3667 13.2173 11.3667 15.5C11.3667 17.7828 13.2173 19.6334 15.5 19.6334Z" fill="white"/>
<path fill-rule="evenodd" clip-rule="evenodd" d="M11.6252 2.5835L9.26141 5.16683H5.16683C3.746 5.16683 2.5835 6.32933 2.5835 7.75016V23.2502C2.5835 24.671 3.746 25.8335 5.16683 25.8335H25.8335C27.2543 25.8335 28.4168 24.671 28.4168 23.2502V7.75016C28.4168 6.32933 27.2543 5.16683 25.8335 5.16683H21.7389L19.3752 2.5835H11.6252ZM15.5002 21.9585C11.9352 21.9585 9.04186 19.0652 9.04186 15.5002C9.04186 11.9352 11.9352 9.04186 15.5002 9.04186C19.0652 9.04186 21.9585 11.9352 21.9585 15.5002C21.9585 19.0652 19.0652 21.9585 15.5002 21.9585Z" fill="white"/>
</svg>
